Coordinates
version=1
nRows=14
nColumns=42
inDegrees=yes

Units are S.I. units (second, meters, Newtons, ...)
If the header above contains a line with 'inDegrees', this indicates whether rotational values are in degrees (yes) or radians (no).

endheader
time	pelvis_tilt	pelvis_list	pelvis_rotation	pelvis_tx	pelvis_ty	pelvis_tz	hip_flexion_r	hip_adduction_r	hip_rotation_r	knee_angle_r	knee_adduction_r	knee_angle_r_beta	ankle_angle_r	subtalar_angle_r	mtp_angle_r	hip_flexion_l	hip_adduction_l	hip_rotation_l	knee_angle_l	knee_adduction_l	knee_angle_l_beta	ankle_angle_l	subtalar_angle_l	mtp_angle_l	lumbar_extension	lumbar_bending	lumbar_rotation	arm_flex_r	arm_add_r	arm_rot_r	elbow_flex_r	pro_sup_r	wrist_flex_r	wrist_dev_r	arm_flex_l	arm_add_l	arm_rot_l	elbow_flex_l	pro_sup_l	wrist_flex_l	wrist_dev_l
      1.00000000	      5.38789608	     -0.42559574	     -1.68523572	     -0.61923498	      0.93384898	     -0.09261714	     11.04724272	     -8.18994694	    -23.53561548	     34.25552902	      1.79160774	      0.59787177	     15.04794643	     14.54632441	     -9.66419451	     -3.91172499	     -2.49976296	    -17.38079033	     27.28845450	      1.11608758	      0.47627338	     23.25964238	      3.11726324	     -9.66419451	    -16.54705446	      0.15150454	     -1.57695616	      7.88830167	     -9.14778726	     -0.96557576	     35.55566623	     90.00000001	      0.00000000	      0.00000000	    -13.69341062	     -8.96187594	     -3.81259274	     52.15422800	     90.00000001	      0.00000000	      0.00000000
      1.01000000	      5.23657905	     -0.38531165	     -1.76578923	     -0.61732683	      0.93362273	     -0.09136123	     11.11522025	     -8.14527188	    -23.52803698	     34.28302711	      1.78349808	      0.59835170	     15.08496224	     14.54617241	     -9.66141455	     -3.90415305	     -2.52352090	    -17.40339133	     27.25781861	      1.11186810	      0.47573868	     23.25875184	      3.11980301	     -9.66141455	    -16.53420958	      0.21489584	     -1.68078232	      8.10179273	     -9.09070411	     -0.94981255	     35.67928538	     90.00000001	      0.00000000	      0.00000000	    -13.61318949	     -8.94523402	     -3.76993122	     52.18300569	     90.00000001	      0.00000000	      0.00000000
      1.02000000	      4.98389897	     -0.40525370	     -1.86684709	     -0.61534568	      0.93313983	     -0.08995964	     11.38772144	     -7.92987309	    -23.39072747	     34.45961599	      1.58318036	      0.60143376	     15.46560990	     14.47070210	     -9.63473026	     -3.76823871	     -2.66276766	    -17.53958338	     27.29509637	      1.10593304	      0.47638930	     23.27497351	      3.17531599	     -9.63473026	    -16.38552199	      0.34913450	     -1.78912766	      8.24102625	     -9.07027897	     -0.76840881	     35.98186995	     90.00000001	      0.00000000	      0.00000000	    -13.67411106	     -9.02048701	     -3.51185634	     52.33384797	     90.00000001	      0.00000000	      0.00000000
      1.03000000	      4.83968011	     -0.36134764	     -1.91162764	     -0.61347858	      0.93297080	     -0.08875384	     11.44711270	     -7.87919204	    -23.33012927	     34.49036558	      1.58484764	      0.60197044	     15.49749797	     14.47029632	     -9.63143354	     -3.74800648	     -2.68403891	    -17.56758464	     27.27620332	      1.07226060	      0.47605956	     23.27372489	      3.18569325	     -9.63143354	    -16.38753340	      0.42451624	     -1.94214319	      8.44721006	     -9.01005553	     -0.73644531	     36.12928675	     90.00000001	      0.00000000	      0.00000000	    -13.59081634	     -9.02211766	     -3.46066743	     52.35625617	     90.00000001	      0.00000000	      0.00000000
      1.04000000	      4.69440509	     -0.33078497	     -1.93600308	     -0.61158502	      0.93282017	     -0.08758588	     11.50753555	     -7.79961815	    -23.21554519	     34.52871534	      1.57440764	      0.60263977	     15.56941814	     14.45391726	     -9.62797480	     -3.72184971	     -2.71643423	    -17.59799370	     27.26380921	      1.01493568	      0.47584324	     23.25729059	      3.20305927	     -9.62797480	    -16.38299304	      0.52983782	     -2.13330257	      8.64336484	     -8.94617540	     -0.69216546	     36.30892618	     90.00000001	      0.00000000	      0.00000000	    -13.54648926	     -9.02602963	     -3.39367598	     52.37923220	     90.00000001	      0.00000000	      0.00000000
      1.05000000	      4.54576571	     -0.30908556	     -1.94649308	     -0.60971705	      0.93268684	     -0.08643066	     11.56589938	     -7.69698101	    -23.04913718	     34.55648158	      1.57357557	      0.60312438	     15.68998661	     14.40717206	     -9.62387554	     -3.67207981	     -2.75965897	    -17.63332240	     27.27552987	      0.93068272	      0.47604780	     23.22015009	      3.23347287	     -9.62387554	    -16.37721647	      0.65434705	     -2.34152731	      8.82900763	     -8.88855578	     -0.62370257	     36.52855917	     90.00000001	      0.00000000	      0.00000000	    -13.52112292	     -9.04379196	     -3.31234083	     52.41582195	     90.00000001	      0.00000000	      0.00000000
      1.06000000	      4.24769159	     -0.38677434	     -1.99731628	     -0.60790674	      0.93221641	     -0.08510823	     11.73392945	     -7.41212082	    -22.29346173	     34.48808696	      1.87131098	      0.60193067	     16.23603762	     13.50651732	     -9.58240913	     -3.26418964	     -3.01742620	    -18.07811762	     27.74306928	      0.70734033	      0.48420790	     23.19198851	      3.60823180	     -9.58240913	    -16.20546457	      0.88046713	     -2.40551754	      8.69208249	     -9.11266754	      0.19705550	     37.31100106	     90.00000001	      0.00000000	      0.00000000	    -13.58388541	     -9.19427334	     -2.85005946	     52.68535326	     90.00000001	      0.00000000	      0.00000000
      1.07000000	      4.12192205	     -0.33046554	     -2.02692472	     -0.60609067	      0.93220569	     -0.08395292	     11.76469687	     -7.36733543	    -22.18374782	     34.49455134	      1.86613941	      0.60204349	     16.22135181	     13.46019260	     -9.57890337	     -3.23645935	     -3.02454495	    -18.09384690	     27.75322055	      0.65153831	      0.48438508	     23.18239634	      3.65032715	     -9.57890337	    -16.23629356	      0.96639767	     -2.54940786	      8.87001848	     -9.06971766	      0.24955234	     37.44906967	     90.00000001	      0.00000000	      0.00000000	    -13.51128495	     -9.19434287	     -2.81867257	     52.68886524	     90.00000001	      0.00000000	      0.00000000
      1.08000000	      3.99961971	     -0.28226963	     -2.04936451	     -0.60426655	      0.93223675	     -0.08281048	     11.75527091	     -7.29978702	    -22.01848021	     34.46664172	      1.88881140	      0.60155638	     16.25694419	     13.38220423	     -9.57467689	     -3.16280896	     -3.03521023	    -18.11414918	     27.84084751	      0.55964999	      0.48591446	     23.12019294	      3.70603045	     -9.57467689	    -16.26028486	      1.07267942	     -2.71537231	      9.03291523	     -9.02705824	      0.33173909	     37.64322913	     90.00000001	      0.00000000	      0.00000000	    -13.46566712	     -9.20609931	     -2.78204283	     52.70858843	     90.00000001	      0.00000000	      0.00000000
      1.09000000	      3.68491333	     -0.50584277	     -2.13804366	     -0.60273963	      0.93188559	     -0.08138068	     11.88068118	     -6.78113052	    -20.95842685	     34.18045991	      2.34803510	      0.59656157	     16.14073293	     11.53016927	     -9.49718476	     -2.56589595	     -3.56046785	    -18.89314830	     28.68577249	      0.24188937	      0.50066118	     23.28454506	      4.58407525	     -9.49718476	    -16.11345916	      1.46815214	     -2.69943798	      8.86212792	     -9.45821291	      1.76549311	     38.56353385	     90.00000001	      0.00000000	      0.00000000	    -13.44327701	     -9.23258178	     -2.58335636	     52.82688565	     90.00000001	      0.00000000	      0.00000000
      1.10000000	      3.57595688	     -0.41473341	     -2.21871129	     -0.60093394	      0.93202364	     -0.08017644	     11.86125935	     -6.79375275	    -20.92498745	     34.14268425	      2.36413396	      0.59590226	     16.16452147	     11.52061525	     -9.49476607	     -2.51594626	     -3.52858292	    -18.87612866	     28.76872933	      0.20902461	      0.50210905	     23.22306083	      4.61386469	     -9.49476607	    -16.15347507	      1.51826470	     -2.76084776	      9.02397117	     -9.41750698	      1.77591989	     38.66684766	     90.00000001	      0.00000000	      0.00000000	    -13.37349571	     -9.22206396	     -2.57357292	     52.85844121	     90.00000001	      0.00000000	      0.00000000
      1.11000000	      3.48557747	     -0.35916489	     -2.15316258	     -0.59930965	      0.93218434	     -0.07914543	     11.69785960	     -6.76431108	    -20.73001886	     33.90512982	      2.54277422	      0.59175615	     16.32767092	     11.46176227	     -9.48136943	     -2.17159203	     -3.60804263	    -18.94341514	     29.44421206	     -0.01460550	      0.51389845	     22.80043323	      4.67061028	     -9.48136943	    -16.24018653	      1.63682397	     -2.97309128	      9.09713895	     -9.42148580	      1.89458918	     38.99964200	     90.00000001	      0.00000000	      0.00000000	    -13.35607381	     -9.25976811	     -2.58636860	     53.01281216	     90.00000001	      0.00000000	      0.00000000
      1.12000000	      3.37691778	     -0.26803914	     -2.29873385	     -0.59748497	      0.93239234	     -0.07784503	     11.66939805	     -6.78411030	    -20.74885727	     33.85343010	      2.56509300	      0.59085382	     16.35045667	     11.44755720	     -9.47919939	     -2.07946014	     -3.58544484	    -18.92645496	     29.60490651	     -0.03904021	      0.51670309	     22.73069096	      4.68144415	     -9.47919939	    -16.27374950	      1.68455822	     -2.94821744	      9.22956556	     -9.41111787	      1.93042511	     39.10167185	     90.00000001	      0.00000000	      0.00000000	    -13.31800063	     -9.24635515	     -2.57992801	     53.04933238	     90.00000001	      0.00000000	      0.00000000
      1.13000000	      2.98963054	     -0.49594187	     -2.24363020	     -0.59613013	      0.93194903	     -0.07663359	     11.85588089	     -6.30668383	    -20.66905180	     33.53567952	      2.50812825	      0.58530802	     16.41046210	     11.27209111	     -9.42830434	     -0.99769095	     -4.23941653	    -19.32810982	     31.24897894	     -0.28280359	      0.54539757	     22.44623718	      4.63007708	     -9.42830434	    -16.05266226	      2.12632453	     -3.01639061	      9.07890477	     -9.73285305	      2.85021801	     39.83231607	     90.00000001	      0.00000000	      0.00000000	    -13.30851009	     -9.20741451	     -2.57455152	     53.28307238	     90.00000001	      0.00000000	      0.00000000
